Patient4_TMGait_0pt7_01_left_12_GRF.mot
version=1
nRows=39
nColumns=19
inDegrees=no
endheader
time	F1x	F1y	F1z	M1x	M1y	M1z	F2x	F2y	F2z	M2x	M2y	M2z	EC1x	EC1y	EC1z	EC2x	EC2y	EC2z
13.79	-1.7875	20.6182	-5.6479	-3.1793	3.0879	29.6522	-65.1958	776.081	-63.0985	291.6245	104.4821	876.4134	-0.0592	0.0182	-0.0073	-0.0462	0.0165	0.9585
13.8014	-1.3682	15.0894	-3.8529	-2.5129	2.0236	21.3886	-59.0825	771.9193	-67.2295	290.9064	104.4664	868.4981	-0.0592	0.0182	-0.0073	-0.0462	0.0165	0.9585
13.8127	-1.0378	10.4522	-2.2844	-1.9726	1.0827	14.4599	-53.4954	767.0576	-70.1209	289.7576	103.534	859.2402	-0.0592	0.0182	-0.0073	-0.0462	0.0165	0.9585
13.8241	-0.78132	6.9593	-1.0599	-1.5834	0.34342	9.2287	-48.6679	761.6284	-71.7136	288.1971	101.7931	848.9006	-0.0592	0.0182	-0.0073	-0.0462	0.0165	0.9585
13.8354	-0.63225	4.6127	-0.18981	-1.3426	-0.1977	5.7159	-44.6094	755.7686	-72.195	286.2895	99.4501	837.7354	-0.0592	0.0182	-0.0073	-0.0462	0.0165	0.9585
13.8468	-0.54121	3.218	0.37872	-1.2189	-0.57045	3.6223	-41.1779	749.5485	-71.9261	284.1067	96.7866	825.8919	-0.0592	0.0182	-0.0073	-0.0462	0.0165	0.9585
13.8581	-0.54511	2.5332	0.71281	-1.1731	-0.82744	2.5991	-38.1412	743.1102	-71.1829	281.759	93.9596	813.5683	-0.0592	0.0182	-0.0073	-0.0462	0.0165	0.9585
13.8695	-0.59324	2.273	0.88776	-1.1559	-1.0069	2.2188	-35.2264	736.6581	-70.2078	279.3863	91.0712	800.9845	-0.0592	0.0182	-0.0073	-0.0462	0.0165	0.9585
13.8809	-0.70983	2.1865	0.96834	-1.1212	-1.1501	2.1341	-32.1644	730.5871	-69.0961	277.1894	88.0855	788.5356	-0.0592	0.0182	-0.0073	-0.0462	0.0165	0.9585
13.8922	-0.85964	2.0144	0.99802	-1.0164	-1.2689	1.9668	-28.7066	725.4143	-67.9072	275.403	84.939	776.7194	-0.0592	0.0182	-0.0073	-0.0462	0.0165	0.9585
13.9036	-1.0466	1.5661	1.0172	-0.79787	-1.3876	1.4759	-24.6835	721.7404	-66.6615	274.2769	81.5623	766.1439	-0.0592	0.0182	-0.0073	-0.0462	0.0165	0.9585
13.9149	-1.2258	0.64858	1.0287	-0.42053	-1.4904	0.39495	-20.0217	720.0778	-65.3853	274.0076	77.9315	757.345	-0.0592	0.0182	-0.0073	-0.0462	0.0165	0.9585
13.9263	-1.3729	-0.84962	1.0396	0.14477	-1.5687	-1.3921	-14.7819	720.6905	-64.1698	274.6687	74.1427	750.6616	-0.0592	0.0182	-0.0073	-0.0462	0.0165	0.9585
13.9376	-1.3961	-2.9654	1.0137	0.90191	-1.5551	-3.9403	-9.1326	723.4254	-63.1175	276.1565	70.3438	746.0266	-0.0592	0.0182	-0.0073	-0.0462	0.0165	0.9585
13.949	-1.2254	-5.5691	0.91787	1.8046	-1.3815	-7.0778	-3.3074	727.7185	-62.4194	278.1888	66.7934	743.0022	-0.0592	0.0182	-0.0073	-0.0462	0.0165	0.9585
13.9604	-0.71631	-8.3246	0.68848	2.7353	-0.92612	-10.4002	2.4311	732.6377	-62.2204	280.3462	63.7135	740.7866	-0.0592	0.0182	-0.0073	-0.0462	0.0165	0.9585
13.9717	0.24947	-10.5647	0.26185	3.466	-0.074571	-13.1086	7.8567	737.1107	-62.6316	282.1621	61.2839	738.44	-0.0592	0.0182	-0.0073	-0.0462	0.0165	0.9585
13.9831	1.8053	-11.22	-0.41638	3.6283	1.2838	-13.9351	12.8043	740.1016	-63.649	283.2034	59.5614	735.0497	-0.0592	0.0182	-0.0073	-0.0462	0.0165	0.9585
13.9944	4.0501	-8.7283	-1.3991	2.6845	3.2451	-10.9906	17.1746	740.7465	-65.1696	283.1307	58.4926	729.8484	-0.0592	0.0182	-0.0073	-0.0462	0.0165	0.9585
14.0058	6.985	-1.0559	-2.6807	-0.065161	5.8104	-1.8041	20.9361	738.4914	-67.0164	281.7493	57.9483	722.352	-0.0592	0.0182	-0.0073	-0.0462	0.0165	0.9585
14.0171	10.4548	14.2425	-4.2222	-5.4563	8.8655	16.5912	24.0906	733.0688	-68.9193	279.005	57.6994	712.3285	-0.0592	0.0182	-0.0073	-0.0462	0.0165	0.9585
14.0285	14.0171	39.6858	-5.8288	-14.3393	12.0141	47.2677	26.6765	724.4434	-70.574	274.9421	57.4749	699.7657	-0.0592	0.0182	-0.0073	-0.0462	0.0165	0.9585
14.0399	16.8144	77.3185	-7.1675	-27.3874	14.5327	92.7291	28.7363	712.5165	-71.6339	269.5968	56.9572	684.5588	-0.0592	0.0182	-0.0073	-0.0462	0.0165	0.9585
14.0512	17.4553	127.7503	-7.6306	-44.7587	15.1929	153.7792	30.3202	697.0106	-71.7703	262.9352	55.8426	666.4559	-0.0592	0.0182	-0.0073	-0.0462	0.0165	0.9585
14.0626	14.1863	189.237	-6.4008	-65.7888	12.416	228.3833	31.4954	677.335	-70.6938	254.8029	53.8541	644.8855	-0.0592	0.0182	-0.0073	-0.0462	0.0165	0.9585
14.0739	6.2519	257.5543	-2.6183	-88.9495	4.9257	311.4805	32.2865	652.6766	-68.2023	244.9458	50.808	619.0797	-0.0592	0.0182	-0.0073	-0.0462	0.0165	0.9585
14.0853	-5.0006	326.2416	4.3263	-111.9923	-7.4805	395.0758	32.7313	622.1638	-64.225	233.0706	46.6371	588.1945	-0.0592	0.0182	-0.0073	-0.0462	0.0165	0.9585
14.0966	-17.1376	388.1826	13.9129	-132.5552	-23.2745	470.1213	32.8069	585.154	-58.8931	218.9413	41.4739	551.6011	-0.0592	0.0182	-0.0073	-0.0462	0.0165	0.9585
14.108	-27.864	439.2945	24.8315	-149.3342	-40.0517	531.2276	32.5033	541.533	-52.4889	202.4963	35.5857	509.149	-0.0592	0.0182	-0.0073	-0.0462	0.0165	0.9585
14.1194	-36.2417	479.445	35.6009	-162.3834	-55.6961	578.0542	31.7484	491.9473	-45.4244	183.9343	29.3662	461.4382	-0.0592	0.0182	-0.0073	-0.0462	0.0165	0.9585
14.1307	-41.8289	511.1124	45.0728	-172.6226	-68.7153	613.5745	30.5221	437.6706	-38.1624	163.6814	23.2318	409.639	-0.0592	0.0182	-0.0073	-0.0462	0.0165	0.9585
14.1421	-44.7485	537.0093	52.4392	-181.042	-78.2216	641.289	28.7382	380.3871	-31.0833	142.3249	17.5278	355.3193	-0.0592	0.0182	-0.0073	-0.0462	0.0165	0.9585
14.1534	-45.19	559.1628	57.3459	-188.3658	-83.9133	663.7238	26.3508	322.0512	-24.4598	120.5657	12.4972	300.281	-0.0592	0.0182	-0.0073	-0.0462	0.0165	0.9585
14.1648	-43.4565	578.7461	60.0539	-194.9744	-86.2237	682.4878	23.2838	264.7129	-18.4698	99.1588	8.2949	246.423	-0.0592	0.0182	-0.0073	-0.0462	0.0165	0.9585
14.1761	-39.9233	596.4875	61.1073	-201.0786	-85.9518	698.558	19.6258	210.4604	-13.2818	78.8779	5.0248	195.6608	-0.0592	0.0182	-0.0073	-0.0462	0.0165	0.9585
14.1875	-35.162	613.1831	61.3197	-206.8777	-84.2339	713.0552	15.5874	161.1621	-9.0036	60.4227	2.6893	149.69	-0.0592	0.0182	-0.0073	-0.0462	0.0165	0.9585
14.1989	-29.7118	629.4958	61.3092	-212.5461	-81.989	726.9194	11.5499	118.2258	-5.6535	44.3274	1.1638	109.7567	-0.0592	0.0182	-0.0073	-0.0462	0.0165	0.9585
14.2102	-24.2887	645.9667	61.6053	-218.2154	-80.0545	740.9027	7.8789	82.4145	-3.1559	30.8892	0.24798	76.5203	-0.0592	0.0182	-0.0073	-0.0462	0.0165	0.9585
14.2216	-19.4269	662.6585	62.5075	-223.8917	-78.9451	755.1488	4.7908	53.832	-1.378	20.1622	-0.25289	50.0428	-0.0592	0.0182	-0.0073	-0.0462	0.0165	0.9585
